<svg width="256" height="256" viewBox="0 0 256 256" fill="none" xmlns="http://www.w3.org/2000/svg">
<rect width="256" height="256" rx="60" fill="url(#paint0_linear_101_2)"/>
<path d="M171.818 90.9091L128 40L84.1818 90.9091L113.455 128H142.545L171.818 90.9091Z" fill="url(#paint1_linear_101_2)"/>
<path d="M142.545 128L128 147.273L113.455 128L128 113.455L142.545 128Z" fill="url(#paint2_linear_101_2)"/>
<path d="M113.455 128L84.1818 90.9091L55 128H84.1818L113.455 128Z" fill="url(#paint3_linear_101_2)"/>
<path d="M142.545 128H171.818L201 128H171.818L142.545 128Z" fill="url(#paint4_linear_101_2)"/>
<path d="M113.455 128L128 147.273L84.1818 201.818L40 128H84.1818L113.455 128Z" fill="url(#paint5_linear_101_2)"/>
<path d="M142.545 128L128 147.273L171.818 201.818L216 128H171.818L142.545 128Z" fill="url(#paint6_linear_101_2)"/>
<defs>
<linearGradient id="paint0_linear_101_2" x1="128" y1="0" x2="128" y2="256" gradientUnits="userSpaceOnUse">
<stop stop-color="#1F2937"/>
<stop offset="1" stop-color="#111827"/>
</linearGradient>
<linearGradient id="paint1_linear_101_2" x1="128" y1="40" x2="128" y2="128" gradientUnits="userSpaceOnUse">
<stop stop-color="#4F46E5"/>
<stop offset="1" stop-color="#3730A3"/>
</linearGradient>
<linearGradient id="paint2_linear_101_2" x1="128" y1="113.455" x2="128" y2="147.273" gradientUnits="userSpaceOnUse">
<stop stop-color="#A78BFA"/>
<stop offset="1" stop-color="#7C3AED"/>
</linearGradient>
<linearGradient id="paint3_linear_101_2" x1="84.1818" y1="90.9091" x2="84.1818" y2="128" gradientUnits="userSpaceOnUse">
<stop stop-color="#6366F1"/>
<stop offset="1" stop-color="#4F46E5"/>
</linearGradient>
<linearGradient id="paint4_linear_101_2" x1="171.818" y1="128" x2="171.818" y2="128" gradientUnits="userSpaceOnUse">
<stop stop-color="#6366F1"/>
<stop offset="1" stop-color="#4F46E5"/>
</linearGradient>
<linearGradient id="paint5_linear_101_2" x1="84.1818" y1="128" x2="84.1818" y2="201.818" gradientUnits="userSpaceOnUse">
<stop stop-color="#A78BFA"/>
<stop offset="1" stop-color="#7C3AED"/>
</linearGradient>
<linearGradient id="paint6_linear_101_2" x1="171.818" y1="128" x2="171.818" y2="201.818" gradientUnits="userSpaceOnUse">
<stop stop-color="#A78BFA"/>
<stop offset="1" stop-color="#7C3AED"/>
</linearGradient>
</defs>
</svg>
